<svg xmlns="http://www.w3.org/2000/svg" width="1200" height="760" viewBox="0 0 1200 760">
  <defs><linearGradient id="bg" x1="0" y1="0" x2="1" y2="1"><stop offset="0" stop-color="#1b1332"/><stop offset=".55" stop-color="#4b2e75"/><stop offset="1" stop-color="#0b1020"/></linearGradient><radialGradient id="sun" cx="75%" cy="22%" r="45%"><stop offset="0" stop-color="#ffd86e" stop-opacity=".65"/><stop offset="1" stop-color="#000" stop-opacity="0"/></radialGradient></defs>
  <rect width="1200" height="760" fill="url(#bg)"/><rect width="1200" height="760" fill="url(#sun)"/>
  <g opacity=".12" stroke="#fff"><path d="M0 100h1200M0 220h1200M0 340h1200M0 460h1200M0 580h1200M0 700h1200"/></g>
  <g transform="translate(650 190)"><rect x="0" y="0" width="340" height="420" rx="30" fill="#f7e7bd"/><rect x="38" y="58" width="264" height="12" rx="6" fill="#684a25" opacity=".45"/><rect x="38" y="100" width="230" height="12" rx="6" fill="#684a25" opacity=".35"/><rect x="38" y="142" width="250" height="12" rx="6" fill="#684a25" opacity=".35"/><path d="M170 230v100M125 280h90" stroke="#4b2e75" stroke-width="18" stroke-linecap="round"/></g>
  <g transform="translate(185 265)"><circle cx="140" cy="140" r="138" fill="#69e2ff" opacity=".16"/><text x="140" y="178" text-anchor="middle" font-family="Inter, Arial" font-size="180" font-weight="900" fill="#ffd86e">?</text></g>
  <text x="70" y="120" font-family="Inter, Arial" font-size="70" font-weight="900" fill="#fff">Bible Quizz</text>
  <text x="74" y="176" font-family="Inter, Arial" font-size="30" font-weight="600" fill="#d8c8ff">Trivia questions, knowledge and quick challenges.</text>
</svg>
